<?xml version="1.0" encoding="utf-8"?>
<!-- Generator: Adobe Illustrator 14.0.0, SVG Export Plug-In . SVG Version: 6.00 Build 43363)  -->
<!DOCTYPE svg PUBLIC "-//W3C//DTD SVG 1.1//EN" "http://www.w3.org/Graphics/SVG/1.1/DTD/svg11.dtd">
<svg version="1.1" id="Layer_1" xmlns="http://www.w3.org/2000/svg" xmlns:xlink="http://www.w3.org/1999/xlink" x="0px" y="0px"
	 width="96px" height="96px" viewBox="0 0 96 96" enable-background="new 0 0 96 96" xml:space="preserve">
<g>
	<rect fill="none" width="96" height="96"/>
</g>
<g>
	<path fill-opacity="0.4" d="M88.023,49c0,29.633-10.364,40-40,40c-29.635,0-40-10.367-40-40c0-29.634,10.366-40,40-40
		C77.659,9,88.023,19.365,88.023,49z"/>
</g>
<g>
	<g>
		
			<linearGradient id="SVGID_1_" gradientUnits="userSpaceOnUse" x1="-171.1602" y1="640.7305" x2="-171.1602" y2="720.71" gradientTransform="matrix(1 0 0 1 219.1602 -632.7207)">
			<stop  offset="0" style="stop-color:#3FA9F5"/>
			<stop  offset="0.0364" style="stop-color:#3FA9F5"/>
			<stop  offset="0.2062" style="stop-color:#3DA4ED"/>
			<stop  offset="0.4684" style="stop-color:#3898D7"/>
			<stop  offset="0.7886" style="stop-color:#3084B4"/>
			<stop  offset="1" style="stop-color:#295799"/>
		</linearGradient>
		<path fill="url(#SVGID_1_)" d="M8,47.989c0,29.633,10.365,40,40,40c29.637,0,40-10.366,40-40c0-28.985-9.926-39.53-38.091-39.979
			h-3.817C17.928,8.459,8,19.004,8,47.989z"/>
		
			<linearGradient id="SVGID_2_" gradientUnits="userSpaceOnUse" x1="-171.1602" y1="640.7207" x2="-171.1602" y2="720.7207" gradientTransform="matrix(1 0 0 1 219.1602 -632.7207)">
			<stop  offset="0" style="stop-color:#3FA9F5"/>
			<stop  offset="0.0364" style="stop-color:#3FA9F5"/>
			<stop  offset="0.2062" style="stop-color:#3DA4ED"/>
			<stop  offset="0.4684" style="stop-color:#3898D7"/>
			<stop  offset="0.7886" style="stop-color:#3084B4"/>
			<stop  offset="1" style="stop-color:#295799"/>
		</linearGradient>
		<path fill="url(#SVGID_2_)" fill-opacity="0.25" d="M48,8C18.365,8,8,18.365,8,48c0,29.633,10.365,40,40,40
			c29.637,0,40-10.367,40-40C88,18.365,77.637,8,48,8z M48,87.023C18.842,87.023,9,77.176,9,48S18.842,8.977,48,8.977
			S87,18.824,87,48S77.158,87.023,48,87.023z"/>
	</g>
	<g display="none">
		
			<linearGradient id="SVGID_3_" gradientUnits="userSpaceOnUse" x1="-171.1602" y1="640.7305" x2="-171.1602" y2="720.71" gradientTransform="matrix(1 0 0 1 219.1602 -632.7207)">
			<stop  offset="0" style="stop-color:#3FA9F5"/>
			<stop  offset="0.0364" style="stop-color:#3FA9F5"/>
			<stop  offset="0.2062" style="stop-color:#3DA4ED"/>
			<stop  offset="0.4684" style="stop-color:#3898D7"/>
			<stop  offset="0.7886" style="stop-color:#3084B4"/>
			<stop  offset="1" style="stop-color:#295799"/>
		</linearGradient>
		<path display="inline" fill="url(#SVGID_3_)" d="M8,47.989c0,29.633,10.365,40,40,40c29.637,0,40-10.366,40-40
			c0-28.985-9.926-39.53-38.091-39.979h-3.817C17.928,8.459,8,19.004,8,47.989z"/>
		
			<linearGradient id="SVGID_4_" gradientUnits="userSpaceOnUse" x1="-171.1602" y1="640.7207" x2="-171.1602" y2="720.7207" gradientTransform="matrix(1 0 0 1 219.1602 -632.7207)">
			<stop  offset="0" style="stop-color:#3FA9F5"/>
			<stop  offset="0.0364" style="stop-color:#3FA9F5"/>
			<stop  offset="0.2062" style="stop-color:#3DA4ED"/>
			<stop  offset="0.4684" style="stop-color:#3898D7"/>
			<stop  offset="0.7886" style="stop-color:#3084B4"/>
			<stop  offset="1" style="stop-color:#295799"/>
		</linearGradient>
		<path display="inline" fill="url(#SVGID_4_)" d="M48,8C18.365,8,8,18.365,8,48c0,29.633,10.365,40,40,40c29.637,0,40-10.367,40-40
			C88,18.365,77.637,8,48,8z M48,87.023C18.842,87.023,9,77.176,9,48S18.842,8.977,48,8.977S87,18.824,87,48
			S77.158,87.023,48,87.023z"/>
	</g>
	<g display="none">
		
			<linearGradient id="SVGID_5_" gradientUnits="userSpaceOnUse" x1="-171.1602" y1="640.7305" x2="-171.1602" y2="720.71" gradientTransform="matrix(1 0 0 1 219.1602 -632.7207)">
			<stop  offset="0" style="stop-color:#3FA9F5"/>
			<stop  offset="0.0364" style="stop-color:#3FA9F5"/>
			<stop  offset="0.2062" style="stop-color:#3DA4ED"/>
			<stop  offset="0.4684" style="stop-color:#3898D7"/>
			<stop  offset="0.7886" style="stop-color:#3084B4"/>
			<stop  offset="1" style="stop-color:#295799"/>
		</linearGradient>
		<path display="inline" fill="url(#SVGID_5_)" d="M8,47.989c0,29.633,10.365,40,40,40c29.637,0,40-10.366,40-40
			c0-28.985-9.926-39.53-38.091-39.979h-3.817C17.928,8.459,8,19.004,8,47.989z"/>
		
			<linearGradient id="SVGID_6_" gradientUnits="userSpaceOnUse" x1="-171.1602" y1="640.7207" x2="-171.1602" y2="720.7207" gradientTransform="matrix(1 0 0 1 219.1602 -632.7207)">
			<stop  offset="0" style="stop-color:#3FA9F5"/>
			<stop  offset="0.0364" style="stop-color:#3FA9F5"/>
			<stop  offset="0.2062" style="stop-color:#3DA4ED"/>
			<stop  offset="0.4684" style="stop-color:#3898D7"/>
			<stop  offset="0.7886" style="stop-color:#3084B4"/>
			<stop  offset="1" style="stop-color:#295799"/>
		</linearGradient>
		<path display="inline" fill="url(#SVGID_6_)" d="M48,8C18.365,8,8,18.365,8,48c0,29.633,10.365,40,40,40c29.637,0,40-10.367,40-40
			C88,18.365,77.637,8,48,8z M48,87.023C18.842,87.023,9,77.176,9,48S18.842,8.977,48,8.977S87,18.824,87,48
			S77.158,87.023,48,87.023z"/>
	</g>
	<g display="none">
		
			<linearGradient id="SVGID_7_" gradientUnits="userSpaceOnUse" x1="-171.1602" y1="640.7305" x2="-171.1602" y2="720.71" gradientTransform="matrix(1 0 0 1 219.1602 -632.7207)">
			<stop  offset="0" style="stop-color:#3FA9F5"/>
			<stop  offset="0.0364" style="stop-color:#3FA9F5"/>
			<stop  offset="0.2062" style="stop-color:#3DA4ED"/>
			<stop  offset="0.4684" style="stop-color:#3898D7"/>
			<stop  offset="0.7886" style="stop-color:#3084B4"/>
			<stop  offset="1" style="stop-color:#295799"/>
		</linearGradient>
		<path display="inline" fill="url(#SVGID_7_)" d="M8,47.989c0,29.633,10.365,40,40,40c29.637,0,40-10.366,40-40
			c0-28.985-9.926-39.53-38.091-39.979h-3.817C17.928,8.459,8,19.004,8,47.989z"/>
		
			<linearGradient id="SVGID_8_" gradientUnits="userSpaceOnUse" x1="-171.1602" y1="640.7207" x2="-171.1602" y2="720.7207" gradientTransform="matrix(1 0 0 1 219.1602 -632.7207)">
			<stop  offset="0" style="stop-color:#3FA9F5"/>
			<stop  offset="0.0364" style="stop-color:#3FA9F5"/>
			<stop  offset="0.2062" style="stop-color:#3DA4ED"/>
			<stop  offset="0.4684" style="stop-color:#3898D7"/>
			<stop  offset="0.7886" style="stop-color:#3084B4"/>
			<stop  offset="1" style="stop-color:#295799"/>
		</linearGradient>
		<path display="inline" fill="url(#SVGID_8_)" d="M48,8C18.365,8,8,18.365,8,48c0,29.633,10.365,40,40,40c29.637,0,40-10.367,40-40
			C88,18.365,77.637,8,48,8z M48,87.023C18.842,87.023,9,77.176,9,48S18.842,8.977,48,8.977S87,18.824,87,48
			S77.158,87.023,48,87.023z"/>
	</g>
	<g display="none">
		
			<linearGradient id="SVGID_9_" gradientUnits="userSpaceOnUse" x1="-171.1602" y1="640.7305" x2="-171.1602" y2="720.71" gradientTransform="matrix(1 0 0 1 219.1602 -632.7207)">
			<stop  offset="0" style="stop-color:#3FA9F5"/>
			<stop  offset="0.0364" style="stop-color:#3FA9F5"/>
			<stop  offset="0.2062" style="stop-color:#3DA4ED"/>
			<stop  offset="0.4684" style="stop-color:#3898D7"/>
			<stop  offset="0.7886" style="stop-color:#3084B4"/>
			<stop  offset="1" style="stop-color:#295799"/>
		</linearGradient>
		<path display="inline" fill="url(#SVGID_9_)" d="M8,47.989c0,29.633,10.365,40,40,40c29.637,0,40-10.366,40-40
			c0-28.985-9.926-39.53-38.091-39.979h-3.817C17.928,8.459,8,19.004,8,47.989z"/>
		
			<linearGradient id="SVGID_10_" gradientUnits="userSpaceOnUse" x1="-171.1602" y1="640.7207" x2="-171.1602" y2="720.7207" gradientTransform="matrix(1 0 0 1 219.1602 -632.7207)">
			<stop  offset="0" style="stop-color:#3FA9F5"/>
			<stop  offset="0.0364" style="stop-color:#3FA9F5"/>
			<stop  offset="0.2062" style="stop-color:#3DA4ED"/>
			<stop  offset="0.4684" style="stop-color:#3898D7"/>
			<stop  offset="0.7886" style="stop-color:#3084B4"/>
			<stop  offset="1" style="stop-color:#295799"/>
		</linearGradient>
		<path display="inline" fill="url(#SVGID_10_)" d="M48,8C18.365,8,8,18.365,8,48c0,29.633,10.365,40,40,40
			c29.637,0,40-10.367,40-40C88,18.365,77.637,8,48,8z M48,87.023C18.842,87.023,9,77.176,9,48S18.842,8.977,48,8.977
			S87,18.824,87,48S77.158,87.023,48,87.023z"/>
	</g>
</g>
<path fill-rule="evenodd" clip-rule="evenodd" fill="#394B4C" d="M71.88,29.639c0.144,0.14,0.285,0.282,0.424,0.425
	C72.165,29.921,72.023,29.779,71.88,29.639z M47.079,35.688c-8.903,0-17.122-2.04-23.748-5.482c1.778-1.843,3.826-3.485,6.096-4.875
	c5.019,3.069,11.099,4.868,17.653,4.868c6.897,0,13.271-1.992,18.434-5.362c2.359,1.354,4.501,2.971,6.366,4.803
	C65.082,33.423,56.46,35.688,47.079,35.688z M65.514,24.836c-0.192-0.109-0.385-0.216-0.577-0.322
	C65.129,24.62,65.321,24.727,65.514,24.836z M64.916,24.502c-0.19-0.104-0.383-0.207-0.574-0.306
	C64.533,24.296,64.726,24.398,64.916,24.502z M47.08,28.828c-6.052,0-11.7-1.534-16.48-4.185c4.984-2.779,10.917-4.392,17.287-4.392
	c6.018,0,11.646,1.441,16.455,3.945C59.398,27.122,53.464,28.828,47.08,28.828z M30.6,24.643c-0.398,0.222-0.79,0.451-1.173,0.687
	C29.811,25.094,30.202,24.865,30.6,24.643z M23.331,30.205c-0.142,0.146-0.28,0.294-0.417,0.442
	C23.051,30.499,23.189,30.351,23.331,30.205z M65.354,71.144c-0.188,0.105-0.375,0.21-0.563,0.312
	C64.979,71.354,65.166,71.249,65.354,71.144z M23.006,65.342c6.682-3.545,15.023-5.65,24.072-5.65
	c9.532,0,18.281,2.337,25.131,6.233c-1.978,2.002-4.277,3.759-6.831,5.205c0.183-0.103,0.364-0.207,0.544-0.313
	c-5.233-3.536-11.763-5.637-18.844-5.637c-6.733,0-12.968,1.898-18.063,5.122c-2.421-1.535-4.583-3.355-6.42-5.409
	C22.73,65.044,22.867,65.193,23.006,65.342z M29.014,70.302c0.185,0.117,0.37,0.23,0.557,0.347
	C29.384,70.534,29.199,70.419,29.014,70.302z M29.589,70.658c0.185,0.112,0.371,0.222,0.557,0.33
	C29.959,70.88,29.773,70.771,29.589,70.658z M47.078,66.55c6.581,0,12.682,1.814,17.713,4.905
	c-4.904,2.649-10.698,4.183-16.904,4.183c-6.563,0-12.664-1.713-17.741-4.649C35.022,68.182,40.834,66.55,47.078,66.55z
	 M72.209,65.925c0.14-0.143,0.279-0.287,0.417-0.431C72.488,65.638,72.349,65.782,72.209,65.925z M73.044,65.044
	c-6.965-4.189-16.041-6.722-25.966-6.722c-9.424,0-18.082,2.283-24.896,6.1c0.128,0.148,0.257,0.298,0.389,0.444
	c-3.999-4.479-6.447-10.047-6.65-16.104h63.931c0.003-0.082,0.004-0.164,0.007-0.248C79.714,54.746,77.191,60.474,73.044,65.044z
	 M15.921,48.762c-0.003-0.082-0.005-0.164-0.006-0.248C15.917,48.598,15.918,48.68,15.921,48.762z M22.484,31.122
	c6.767,3.716,15.309,5.935,24.595,5.935c9.779,0,18.734-2.46,25.659-6.539c-0.137-0.146-0.273-0.29-0.412-0.433
	c4.702,4.822,7.54,11.054,7.54,17.86c0-0.165-0.003-0.329-0.006-0.494H15.913c0.129-6.345,2.72-12.168,6.984-16.786
	C22.757,30.817,22.62,30.969,22.484,31.122z"/>
<linearGradient id="SVGID_11_" gradientUnits="userSpaceOnUse" x1="15.6255" y1="47.9448" x2="80.3055" y2="47.9448">
	<stop  offset="0" style="stop-color:#3FA9F5"/>
	<stop  offset="0.0364" style="stop-color:#3FA9F5"/>
	<stop  offset="0.2062" style="stop-color:#3DA4ED"/>
	<stop  offset="0.3266" style="stop-color:#3898D7"/>
	<stop  offset="0.5546" style="stop-color:#3084B4"/>
	<stop  offset="0.8686" style="stop-color:#295799"/>
</linearGradient>
<path fill-rule="evenodd" clip-rule="evenodd" fill="url(#SVGID_11_)" stroke="#FFFFFF" d="M71.158,30.19
	c0.139,0.136,0.276,0.273,0.411,0.412C71.435,30.463,71.297,30.326,71.158,30.19z M47.104,36.057
	c-8.635,0-16.607-1.979-23.033-5.318c1.724-1.788,3.711-3.38,5.912-4.729c4.868,2.977,10.765,4.722,17.122,4.722
	c6.689,0,12.871-1.932,17.879-5.201c2.288,1.313,4.365,2.881,6.175,4.659C64.564,33.86,56.202,36.057,47.104,36.057z M64.983,25.531
	c-0.187-0.105-0.373-0.209-0.56-0.313C64.61,25.322,64.797,25.426,64.983,25.531z M64.403,25.208
	c-0.185-0.101-0.371-0.2-0.557-0.297C64.032,25.008,64.219,25.107,64.403,25.208z M47.104,29.403c-5.87,0-11.348-1.488-15.984-4.059
	c4.834-2.695,10.589-4.259,16.766-4.259c5.837,0,11.296,1.397,15.96,3.826C59.052,27.748,53.296,29.403,47.104,29.403z
	 M31.121,25.344c-0.386,0.215-0.766,0.437-1.138,0.666C30.354,25.781,30.734,25.56,31.121,25.344z M24.07,30.739
	c-0.138,0.142-0.272,0.285-0.405,0.429C23.799,31.024,23.933,30.88,24.07,30.739z M64.828,70.445
	c-0.182,0.103-0.364,0.204-0.546,0.302C64.464,70.649,64.646,70.548,64.828,70.445z M23.755,64.818
	c6.481-3.438,14.571-5.48,23.347-5.48c9.245,0,17.731,2.267,24.375,6.046c-1.918,1.941-4.148,3.646-6.625,5.048
	c0.177-0.099,0.354-0.2,0.527-0.304c-5.075-3.43-11.408-5.467-18.277-5.467c-6.531,0-12.578,1.841-17.52,4.968
	c-2.348-1.489-4.445-3.255-6.227-5.246C23.487,64.529,23.62,64.674,23.755,64.818z M29.582,69.629
	c0.179,0.113,0.359,0.224,0.541,0.336C29.941,69.854,29.761,69.742,29.582,69.629z M30.14,69.975
	c0.179,0.109,0.359,0.215,0.541,0.32C30.499,70.189,30.319,70.084,30.14,69.975z M47.102,65.99c6.382,0,12.3,1.76,17.18,4.757
	c-4.757,2.57-10.376,4.058-16.396,4.058c-6.366,0-12.282-1.662-17.207-4.51C35.409,67.572,41.047,65.99,47.102,65.99z
	 M71.477,65.384c0.136-0.139,0.271-0.278,0.405-0.418C71.748,65.105,71.612,65.245,71.477,65.384z M72.287,64.529
	c-6.756-4.063-15.559-6.52-25.185-6.52c-9.14,0-17.537,2.215-24.146,5.916c0.124,0.145,0.25,0.289,0.377,0.431
	c-3.879-4.343-6.253-9.744-6.45-15.619H78.89c0.003-0.08,0.004-0.159,0.007-0.241C78.756,54.541,76.31,60.097,72.287,64.529z
	 M16.883,48.737c-0.003-0.08-0.005-0.159-0.006-0.241C16.879,48.578,16.88,48.657,16.883,48.737z M23.249,31.628
	c6.563,3.604,14.848,5.756,23.854,5.756c9.485,0,18.171-2.386,24.887-6.342c-0.133-0.141-0.265-0.281-0.399-0.419
	c4.561,4.677,7.313,10.721,7.313,17.322c0-0.16-0.002-0.319-0.005-0.479H16.875c0.125-6.154,2.638-11.802,6.774-16.28
	C23.514,31.333,23.381,31.48,23.249,31.628z"/>
<radialGradient id="SVGID_12_" cx="47.8896" cy="47.9448" r="29.0112" gradientUnits="userSpaceOnUse">
	<stop  offset="0" style="stop-color:#FFFFFF"/>
	<stop  offset="0.1212" style="stop-color:#FBFCFD"/>
	<stop  offset="0.2401" style="stop-color:#EFF3F8"/>
	<stop  offset="0.3582" style="stop-color:#DCE3EE"/>
	<stop  offset="0.4757" style="stop-color:#C0CDE1"/>
	<stop  offset="0.5929" style="stop-color:#9CB1D0"/>
	<stop  offset="0.7099" style="stop-color:#708FBB"/>
	<stop  offset="0.8246" style="stop-color:#3E67A3"/>
	<stop  offset="0.8667" style="stop-color:#295799"/>
</radialGradient>
<path opacity="0.67" fill-rule="evenodd" clip-rule="evenodd" fill="url(#SVGID_12_)" stroke="#FFFFFF" d="M71.158,30.19
	c0.139,0.136,0.276,0.273,0.411,0.412C71.435,30.463,71.297,30.326,71.158,30.19z M47.104,36.057
	c-8.635,0-16.607-1.979-23.033-5.318c1.724-1.788,3.711-3.38,5.912-4.729c4.868,2.977,10.765,4.722,17.122,4.722
	c6.689,0,12.871-1.932,17.879-5.201c2.288,1.313,4.365,2.881,6.175,4.659C64.564,33.86,56.202,36.057,47.104,36.057z M64.983,25.531
	c-0.187-0.105-0.373-0.209-0.56-0.313C64.61,25.322,64.797,25.426,64.983,25.531z M64.403,25.208
	c-0.185-0.101-0.371-0.2-0.557-0.297C64.032,25.008,64.219,25.107,64.403,25.208z M47.104,29.403c-5.87,0-11.348-1.488-15.984-4.059
	c4.834-2.695,10.589-4.259,16.766-4.259c5.837,0,11.296,1.397,15.96,3.826C59.052,27.748,53.296,29.403,47.104,29.403z
	 M31.121,25.344c-0.386,0.215-0.766,0.437-1.138,0.666C30.354,25.781,30.734,25.56,31.121,25.344z M24.07,30.739
	c-0.138,0.142-0.272,0.285-0.405,0.429C23.799,31.024,23.933,30.88,24.07,30.739z M64.828,70.445
	c-0.182,0.103-0.364,0.204-0.546,0.302C64.464,70.649,64.646,70.548,64.828,70.445z M23.755,64.818
	c6.481-3.438,14.571-5.48,23.347-5.48c9.245,0,17.731,2.267,24.375,6.046c-1.918,1.941-4.148,3.646-6.625,5.048
	c0.177-0.099,0.354-0.2,0.527-0.304c-5.075-3.43-11.408-5.467-18.277-5.467c-6.531,0-12.578,1.841-17.52,4.968
	c-2.348-1.489-4.445-3.255-6.227-5.246C23.487,64.529,23.62,64.674,23.755,64.818z M29.582,69.629
	c0.179,0.113,0.359,0.224,0.541,0.336C29.941,69.854,29.761,69.742,29.582,69.629z M30.14,69.975
	c0.179,0.109,0.359,0.215,0.541,0.32C30.499,70.189,30.319,70.084,30.14,69.975z M47.102,65.99c6.382,0,12.3,1.76,17.18,4.757
	c-4.757,2.57-10.376,4.058-16.396,4.058c-6.366,0-12.282-1.662-17.207-4.51C35.409,67.572,41.047,65.99,47.102,65.99z
	 M71.477,65.384c0.136-0.139,0.271-0.278,0.405-0.418C71.748,65.105,71.612,65.245,71.477,65.384z M72.287,64.529
	c-6.756-4.063-15.559-6.52-25.185-6.52c-9.14,0-17.537,2.215-24.146,5.916c0.124,0.145,0.25,0.289,0.377,0.431
	c-3.879-4.343-6.253-9.744-6.45-15.619H78.89c0.003-0.08,0.004-0.159,0.007-0.241C78.756,54.541,76.31,60.097,72.287,64.529z
	 M16.883,48.737c-0.003-0.08-0.005-0.159-0.006-0.241C16.879,48.578,16.88,48.657,16.883,48.737z M23.249,31.628
	c6.563,3.604,14.848,5.756,23.854,5.756c9.485,0,18.171-2.386,24.887-6.342c-0.133-0.141-0.265-0.281-0.399-0.419
	c4.561,4.677,7.313,10.721,7.313,17.322c0-0.16-0.002-0.319-0.005-0.479H16.875c0.125-6.154,2.638-11.802,6.774-16.28
	C23.514,31.333,23.381,31.48,23.249,31.628z"/>
<linearGradient id="SVGID_13_" gradientUnits="userSpaceOnUse" x1="47.8892" y1="20.9453" x2="47.8892" y2="61.3817">
	<stop  offset="0" style="stop-color:#3FA9F5"/>
	<stop  offset="0.0364" style="stop-color:#3FA9F5"/>
	<stop  offset="0.2062" style="stop-color:#3DA4ED"/>
	<stop  offset="0.4684" style="stop-color:#3898D7"/>
	<stop  offset="0.7886" style="stop-color:#3084B4"/>
	<stop  offset="1" style="stop-color:#295799"/>
</linearGradient>
<path opacity="0.67" fill-rule="evenodd" clip-rule="evenodd" fill="url(#SVGID_13_)" stroke="#FFFFFF" d="M71.158,30.19
	c0.139,0.136,0.276,0.273,0.411,0.412C71.435,30.463,71.297,30.326,71.158,30.19z M47.104,36.057
	c-8.635,0-16.607-1.979-23.033-5.318c1.724-1.788,3.711-3.38,5.912-4.729c4.868,2.977,10.765,4.722,17.122,4.722
	c6.689,0,12.871-1.932,17.879-5.201c2.288,1.313,4.365,2.881,6.175,4.659C64.564,33.86,56.202,36.057,47.104,36.057z M64.983,25.531
	c-0.187-0.105-0.373-0.209-0.56-0.313C64.61,25.322,64.797,25.426,64.983,25.531z M64.403,25.208
	c-0.185-0.101-0.371-0.2-0.557-0.297C64.032,25.008,64.219,25.107,64.403,25.208z M47.104,29.403c-5.87,0-11.348-1.488-15.984-4.059
	c4.834-2.695,10.589-4.259,16.766-4.259c5.837,0,11.296,1.397,15.96,3.826C59.052,27.748,53.296,29.403,47.104,29.403z
	 M31.121,25.344c-0.386,0.215-0.766,0.437-1.138,0.666C30.354,25.781,30.734,25.56,31.121,25.344z M24.07,30.739
	c-0.138,0.142-0.272,0.285-0.405,0.429C23.799,31.024,23.933,30.88,24.07,30.739z M64.828,70.445
	c-0.182,0.103-0.364,0.204-0.546,0.302C64.464,70.649,64.646,70.548,64.828,70.445z M23.755,64.818
	c6.481-3.438,14.571-5.48,23.347-5.48c9.245,0,17.731,2.267,24.375,6.046c-1.918,1.941-4.148,3.646-6.625,5.048
	c0.177-0.099,0.354-0.2,0.527-0.304c-5.075-3.43-11.408-5.467-18.277-5.467c-6.531,0-12.578,1.841-17.52,4.968
	c-2.348-1.489-4.445-3.255-6.227-5.246C23.487,64.529,23.62,64.674,23.755,64.818z M29.582,69.629
	c0.179,0.113,0.359,0.224,0.541,0.336C29.941,69.854,29.761,69.742,29.582,69.629z M30.14,69.975
	c0.179,0.109,0.359,0.215,0.541,0.32C30.499,70.189,30.319,70.084,30.14,69.975z M47.102,65.99c6.382,0,12.3,1.76,17.18,4.757
	c-4.757,2.57-10.376,4.058-16.396,4.058c-6.366,0-12.282-1.662-17.207-4.51C35.409,67.572,41.047,65.99,47.102,65.99z
	 M71.477,65.384c0.136-0.139,0.271-0.278,0.405-0.418C71.748,65.105,71.612,65.245,71.477,65.384z M72.287,64.529
	c-6.756-4.063-15.559-6.52-25.185-6.52c-9.14,0-17.537,2.215-24.146,5.916c0.124,0.145,0.25,0.289,0.377,0.431
	c-3.879-4.343-6.253-9.744-6.45-15.619H78.89c0.003-0.08,0.004-0.159,0.007-0.241C78.756,54.541,76.31,60.097,72.287,64.529z
	 M16.883,48.737c-0.003-0.08-0.005-0.159-0.006-0.241C16.879,48.578,16.88,48.657,16.883,48.737z M23.249,31.628
	c6.563,3.604,14.848,5.756,23.854,5.756c9.485,0,18.171-2.386,24.887-6.342c-0.133-0.141-0.265-0.281-0.399-0.419
	c4.561,4.677,7.313,10.721,7.313,17.322c0-0.16-0.002-0.319-0.005-0.479H16.875c0.125-6.154,2.638-11.802,6.774-16.28
	C23.514,31.333,23.381,31.48,23.249,31.628z"/>
<path fill-rule="evenodd" clip-rule="evenodd" fill="#4C4C4C" stroke="#2D2D2D" stroke-width="0.5" d="M75.013,43.432l4.42,9.809
	h3.801v2.828H72.021v-2.828h3.286l-0.832-1.846h-7.473l-0.906,1.846h3.722v2.828H58.606v-2.828h3.396l4.813-9.809h-5.572v-2.749
	h19.2v2.749H75.013z M70.898,43.456l-2.508,5.114h4.813L70.898,43.456z M55.501,43.432H49.52v9.809h4.993v2.828H41.166v-2.828h4.845
	v-9.809h-5.747v3.064h-2.961v-5.651l0,0v-0.162h21.16v0.162l0,0v5.651h-2.962V43.432z M30.779,47.532L30.779,47.532
	c1.61,0.011,2.914,1.917,2.914,4.268c0,2.357-1.311,4.268-2.925,4.268c-0.025,0-0.05-0.002-0.075-0.002h-8.723v0.004h-0.545l0,0
	h-7.191v-2.744h4.238v-9.901H12.32v-2.742h21.35v0.001h0.021v5.808h-2.795v-3.066h-8.926v4.107H30.779z M22.133,53.374h6.479
	c0.015,0,0.028,0,0.042,0c0.885,0,1.602-0.709,1.602-1.588c0-0.873-0.715-1.582-1.596-1.586l0,0h-6.527V53.374z"/>
<path fill-rule="evenodd" clip-rule="evenodd" fill="#020202" stroke="#606060" stroke-width="0.5" d="M74.923,43.353l4.42,9.81
	h3.801v2.827H71.932v-2.827h3.286l-0.832-1.847h-7.473l-0.906,1.847h3.722v2.827H58.517v-2.827h3.396l4.813-9.81h-5.572v-2.749h19.2
	v2.749H74.923z M70.809,43.376l-2.508,5.113h4.813L70.809,43.376z M55.411,43.353H49.43v9.81h4.993v2.827H41.077v-2.827h4.844v-9.81
	h-5.747v3.064h-2.962v-5.651h0v-0.162h21.16v0.162l0,0v5.651h-2.962V43.353z M30.69,47.452L30.69,47.452
	c1.61,0.011,2.913,1.917,2.913,4.269c0,2.357-1.31,4.267-2.924,4.267c-0.025,0-0.05-0.001-0.075-0.002h-8.723v0.004h-0.545l0,0
	h-7.191v-2.743h4.238v-9.901H12.23v-2.742h21.35v0.001h0.022v5.808h-2.795v-3.066h-8.926v4.107H30.69z M22.043,53.294h6.479
	c0.015,0,0.028,0.001,0.042,0.001c0.884,0,1.601-0.71,1.601-1.588c0-0.873-0.714-1.583-1.595-1.587l0,0h-6.527V53.294z"/>
<path fill-rule="evenodd" clip-rule="evenodd" fill="#FFFFFF" stroke="#03828C" stroke-width="0.5" d="M74.849,43.259l4.42,9.81
	h3.801v2.828H71.857v-2.828h3.286l-0.832-1.846h-7.473l-0.906,1.846h3.722v2.828H58.442v-2.828h3.396l4.813-9.81H61.08v-2.75h19.2
	v2.75H74.849z M70.734,43.282l-2.508,5.113h4.813L70.734,43.282z M55.337,43.259h-5.981v9.81h4.993v2.828H41.002v-2.828h4.845v-9.81
	H40.1v3.064h-2.962v-5.652h0v-0.162h21.16v0.162l0,0v5.652h-2.962V43.259z M30.616,47.358L30.616,47.358
	c1.61,0.011,2.913,1.917,2.913,4.269c0,2.357-1.31,4.268-2.924,4.268c-0.025,0-0.05-0.002-0.075-0.002h-8.723v0.004h-0.545l0,0
	H14.07v-2.744h4.238v-9.901h-6.152v-2.742h21.35l0,0h0.022v5.809h-2.795v-3.066h-8.926v4.107H30.616z M21.969,53.201h6.479
	c0.015,0,0.028,0,0.042,0c0.884,0,1.601-0.709,1.601-1.588c0-0.873-0.714-1.582-1.595-1.586l0,0h-6.527V53.201z"/>
</svg>
