<?xml version="1.0" encoding="UTF-8"?>
<!-- Generator: Adobe Illustrator 16.0.3, SVG Export Plug-In . SVG Version: 6.00 Build 0)  -->
<!DOCTYPE svg PUBLIC "-//W3C//DTD SVG 1.1//EN" "http://www.w3.org/Graphics/SVG/1.1/DTD/svg11.dtd">
<svg version="1.1" id="Calque_3" xmlns="http://www.w3.org/2000/svg" xmlns:xlink="http://www.w3.org/1999/xlink" x="0px" y="0px" width="450px" height="240px" viewBox="0 0 450 240" enable-background="new 0 0 450 240" xml:space="preserve">
<g>
	<g>
		<path fill-rule="evenodd" clip-rule="evenodd" d="M177.289,123.379c-2.979,0-5.811,0-8.766,0c0-2.047-0.002-4.041,0-6.038    c0.009-8.548,0.052-17.097,0.013-25.645c-0.018-3.63-2.522-6.113-6.128-6.164c-4.703-0.064-9.406-0.059-14.109-0.077    c-0.363-0.001-0.727,0.054-1.181,0.091c0,12.62,0,25.149,0,37.778c-2.916,0-5.732,0-8.646,0c0-12.508,0-25.034,0-37.87    c-1.33,0-2.58-0.005-3.829,0c-3.621,0.016-7.241-0.005-10.861,0.06c-3.404,0.061-6.042,2.786-6.051,6.201    c-0.028,9.931-0.038,19.86-0.057,29.79c0,0.449,0.025,0.91-0.073,1.338c-0.05,0.214-0.35,0.525-0.54,0.527    c-2.682,0.033-5.362,0.023-8.137,0.023c-0.03-0.471-0.07-0.826-0.07-1.184c0-9.854,0.012-19.709,0.009-29.566    c0-3.841,0.865-7.393,3.409-10.395c2.928-3.455,6.588-5.429,11.188-5.429c13.288,0.001,26.578-0.035,39.868,0.044    c7.546,0.046,13.975,6.649,13.996,14.216c0.03,10.378,0.019,20.755,0.021,31.136C177.343,122.58,177.31,122.943,177.289,123.379z"/>
		<path fill-rule="evenodd" clip-rule="evenodd" d="M2.552,114.564c0.475,0,0.915,0.001,1.357,0    c11.313-0.004,22.627-0.007,33.942-0.022c2.969-0.002,5.413-1.914,6.047-4.681c0.54-2.355-0.644-4.991-2.897-6.098    c-1.331-0.653-2.755-1.141-4.175-1.585c-8.21-2.568-16.431-5.11-24.655-7.646c-6.348-1.96-10.263-7.771-9.731-14.478    C2.922,73.969,7.997,68.7,14.378,67.969c2.878-0.329,5.811-0.224,8.72-0.236c7.991-0.036,15.981-0.03,23.971-0.039    c0.364,0,0.727,0.037,1.156,0.06c0,2.977,0,5.876,0,8.911c-0.337,0.03-0.689,0.089-1.043,0.088    c-9.818-0.029-19.638-0.079-29.458-0.084c-1.555,0-3.164-0.04-4.522,0.949c-1.575,1.146-2.175,2.739-1.85,4.62    c0.33,1.912,1.417,3.233,3.328,3.833c7.853,2.471,15.701,4.96,23.55,7.443c1.489,0.472,2.986,0.934,4.472,1.424    c6.752,2.228,10.446,8.172,9.846,15.826c-0.457,5.819-5.811,11.526-12.018,12.333c-3.423,0.445-6.933,0.303-10.403,0.318    c-8.849,0.041-17.697,0.01-26.547,0.057c-0.865,0.005-1.194-0.313-1.341-1.075C1.737,119.791,1.904,117.219,2.552,114.564z"/>
		<path fill-rule="evenodd" clip-rule="evenodd" d="M101.805,123.406c-2.838,0-5.522,0.012-8.207-0.003    c-7.204-0.038-14.409-0.073-21.613-0.142c-6.147-0.061-13.549-5.464-13.893-14.186c-0.286-7.309,5.044-14.132,12.352-15.104    c3.159-0.421,6.401-0.231,9.607-0.281c4.141-0.066,8.284-0.121,12.428-0.12c0.992,0,1.313-0.4,1.063-1.266    c-0.381-1.314-0.672-2.692-1.308-3.882c-1.022-1.909-2.751-2.855-4.967-2.863c-7.728-0.027-15.453-0.071-23.179-0.108    c-0.477-0.002-0.954,0-1.516,0c0-2.919,0-5.702,0-8.625c0.375-0.025,0.767-0.079,1.157-0.077    c8.101,0.034,16.201,0.036,24.301,0.123c7.497,0.08,13.983,6.593,13.986,14.098c0.006,10.375-0.09,20.752-0.145,31.13    C101.87,122.502,101.831,122.906,101.805,123.406z M93.398,102.667c-0.446-0.048-0.7-0.095-0.955-0.1    c-3.767-0.06-7.531-0.135-11.299-0.163c-2.723-0.02-5.448-0.026-8.169,0.054c-3.47,0.103-6.177,2.816-6.096,6.006    c0.091,3.699,2.554,6.086,6.285,6.096c3.321,0.007,6.641,0.021,9.96,0.016c3.096-0.005,6.192-0.028,9.289-0.049    c0.479-0.004,0.994,0.069,0.992-0.695C93.391,110.145,93.398,106.458,93.398,102.667z"/>
		<path fill-rule="evenodd" clip-rule="evenodd" d="M447.771,103.484c-11.184,0-22.253,0-33.453,0    c-0.176,2.625-0.614,5.197,0.464,7.652c0.997,2.274,2.855,3.369,5.331,3.377c7.316,0.021,14.629,0.032,21.945,0.046    c0.438,0.001,0.877,0.001,1.378,0.001c0,2.972,0,5.823,0,8.842c-1.047,0-2.042-0.001-3.04,0    c-6.345,0.003-12.689,0.046-19.035-0.009c-2.727-0.022-5.444-0.318-7.915-1.646c-5.061-2.721-7.829-7.043-8.019-12.706    c-0.215-6.371-0.243-12.77,0.1-19.132c0.377-6.946,6.896-12.855,13.839-12.969c4.814-0.078,9.631-0.074,14.444,0.007    c7.414,0.122,13.858,6.661,13.947,14.074c0.048,3.808,0.048,7.615,0.065,11.421C447.824,102.738,447.796,103.034,447.771,103.484z     M413.95,94.817c8.583,0,16.877,0,25.358,0c-0.117-1.391-0.12-2.694-0.347-3.955c-0.56-3.116-2.613-5.043-5.758-5.281    c-2.109-0.159-4.24-0.057-6.358-0.055c-2.31,0.004-4.623-0.067-6.925,0.07c-2.646,0.159-4.88,1.972-5.43,4.424    C414.153,91.523,414.13,93.099,413.95,94.817z"/>
		<path fill-rule="evenodd" clip-rule="evenodd" d="M222.072,76.757c0,2.876,0,5.663,0,8.576c-0.487,0.031-0.954,0.085-1.423,0.088    c-7.987,0.037-15.979,0.067-23.968,0.101c-1.652,0.006-2.624,0.617-3.17,1.976c-0.718,1.785-0.023,3.34,1.895,3.961    c5.383,1.75,10.784,3.453,16.179,5.169c2.131,0.676,4.274,1.31,6.394,2.02c9.23,3.087,11.213,13.356,6.159,19.916    c-2.451,3.184-5.903,4.74-9.833,4.792c-9.855,0.127-19.714,0.056-29.571,0.062c-0.142,0-0.282-0.042-0.499-0.08    c0-2.854,0-5.677,0-8.637c0.644-0.037,1.302-0.099,1.959-0.1c9.147-0.021,18.295-0.03,27.444-0.053    c0.553-0.003,1.127-0.026,1.658-0.168c1.464-0.395,2.386-1.383,2.652-2.869c0.332-1.851-0.211-3.262-1.736-3.997    c-1.5-0.722-3.108-1.247-4.699-1.749c-6.251-1.974-12.521-3.891-18.776-5.856c-4.732-1.488-8.013-5.45-8.319-10.316    c-0.419-6.583,3.759-11.489,9.329-12.536c2.39-0.45,4.911-0.278,7.371-0.29C208.059,76.735,215.001,76.757,222.072,76.757z"/>
		<path fill-rule="evenodd" clip-rule="evenodd" d="M350.485,123.381c-2.982,0-5.811,0-8.836,0c0-0.502,0-1.006,0-1.51    c-0.004-9.967-0.1-19.939,0.043-29.906c0.053-3.822-3.033-6.522-6.603-6.533c-4.852-0.016-9.703,0.045-14.557,0.119    c-3.966,0.061-6.43,2.562-6.449,6.597c-0.049,9.821-0.05,19.64-0.07,29.458c-0.002,0.559,0,1.114,0,1.72c-2.897,0-5.71,0-8.581,0    c-0.035-0.403-0.084-0.688-0.081-0.976c0.028-10.305,0.151-20.61,0.068-30.915c-0.067-8.183,6.65-14.422,13.638-14.542    c6.152-0.106,12.318-0.193,18.459,0.09c6.303,0.29,11.997,6.009,12.774,12.339c0.137,1.107,0.207,2.23,0.208,3.346    c0.008,9.708-0.006,19.416-0.014,29.125C350.485,122.303,350.485,122.814,350.485,123.381z"/>
		<path fill-rule="evenodd" clip-rule="evenodd" d="M373.058,67.69c2.847,0,5.632,0,8.605,0c0,0.901-0.001,1.704,0,2.504    c0.003,1.793,0.051,3.586-0.006,5.376c-0.031,0.917,0.242,1.221,1.188,1.213c3.956-0.032,7.914,0.013,11.871,0.034    c0.295,0,0.591,0.042,0.968,0.073c0,2.81,0,5.581,0,8.546c-4.638,0-9.25,0-14.035,0c0,0.546,0,0.901,0,1.255    c0.007,7.018,0.013,14.038,0.02,21.056c0.005,4.248,2.503,6.774,6.72,6.787c3.84,0.012,7.68,0.003,11.57,0.003    c0.062,0.344,0.136,0.588,0.139,0.835c0.016,2.314,0.015,4.628,0.027,6.943c0.003,0.529-0.033,0.92-0.761,0.927    c-3.472,0.027-6.943,0.184-10.409,0.14c-3.634-0.046-7.111-0.75-10.106-3.036c-3.672-2.801-5.771-6.524-5.807-11.103    c-0.106-13.625-0.032-27.254-0.026-40.881C373.015,68.148,373.041,67.931,373.058,67.69z"/>
		<path fill-rule="evenodd" clip-rule="evenodd" d="M289.834,117.453c0.617-8.089-1.593-15.068-7.481-20.6    c-5.91-5.55-13.114-7.014-20.979-6.138c2.988-6.294,10.14-12.232,19.879-11.516c9.673,0.713,17.233,7.583,18.889,16.833    C301.809,105.344,296.723,113.903,289.834,117.453z"/>
		<path fill-rule="evenodd" clip-rule="evenodd" d="M282.896,75.453c-17.539-1.127-29.055,12.431-26.811,28.49    c-4.605-1.579-11.981-9.03-11.721-18.897c0.248-9.394,7.146-17.752,16.745-19.617C270.604,63.583,279.074,68.639,282.896,75.453z"/>
		<path fill-rule="evenodd" clip-rule="evenodd" d="M269.428,109.217c-2.609,6.098-10.47,12.625-20.854,11.496    c-9.073-0.985-16.606-8.019-17.983-17.056c-1.329-8.756,2.673-16.543,10.099-21.149c-0.147,7.901,1.72,14.996,7.721,20.569    C254.375,108.62,261.47,110.185,269.428,109.217z"/>
		<path fill-rule="evenodd" clip-rule="evenodd" d="M247.938,124.359c7.997,0.617,15.036-1.469,20.523-7.415    c5.438-5.895,7.444-12.938,6.188-20.901c7.125,2.342,12.338,11.782,11.553,20.81c-0.757,8.732-8.39,16.538-17.262,17.781    C259.628,135.938,251.51,131.313,247.938,124.359z"/>
		<path fill-rule="evenodd" clip-rule="evenodd" d="M365.908,123.318c-2.873,0-5.684,0-8.444,0c0-15.483,0-30.845,0-46.411    c2.859,0,5.589,0,8.444,0C365.908,92.246,365.908,107.744,365.908,123.318z"/>
		<path fill-rule="evenodd" clip-rule="evenodd" fill="none" d="M93.398,102.667c0,3.792-0.008,7.478,0.007,11.165    c0.002,0.764-0.513,0.691-0.992,0.695c-3.096,0.021-6.192,0.044-9.289,0.049c-3.319,0.006-6.639-0.009-9.96-0.016    c-3.731-0.01-6.194-2.397-6.285-6.096c-0.081-3.189,2.626-5.903,6.096-6.006c2.721-0.08,5.446-0.073,8.169-0.054    c3.768,0.028,7.532,0.103,11.299,0.163C92.698,102.572,92.952,102.619,93.398,102.667z"/>
		<path fill-rule="evenodd" clip-rule="evenodd" fill="none" d="M413.95,94.817c0.18-1.718,0.203-3.293,0.541-4.797    c0.55-2.452,2.784-4.265,5.43-4.424c2.302-0.137,4.615-0.066,6.925-0.07c2.118-0.002,4.249-0.104,6.358,0.055    c3.145,0.238,5.198,2.165,5.758,5.281c0.227,1.261,0.229,2.564,0.347,3.955C430.827,94.817,422.533,94.817,413.95,94.817z"/>
	</g>
	<path fill="#010101" d="M8.212,176.342H5.083v-23.159h16.031v2.774H8.212v7.095h11.354v2.774H8.212V176.342z"/>
	<path fill="#010101" d="M38.181,169.601l-2.419,6.741h-3.225l8.708-23.159h3.548l8.386,23.159H49.76l-2.29-6.741H38.181z    M46.341,166.826l-3.418-10.193h-0.064l-3.709,10.193H46.341z"/>
	<path fill="#010101" d="M83.986,160.149c-0.871-4.063-4.258-4.806-6.483-4.806c-4.193,0-7.58,3.097-7.58,9.192   c0,5.451,1.935,9.644,7.677,9.644c2.031,0,5.547-0.967,6.612-6.354h3.031c-1.29,8.741-8.386,9.128-10.127,9.128   c-5.258,0-10.418-3.418-10.418-12.32c0-7.13,4.064-12.063,10.806-12.063c5.967,0,9.063,3.709,9.515,7.579H83.986z"/>
	<path fill="#010101" d="M101.666,153.183h18.803v2.774h-7.838v20.385h-3.128v-20.385h-7.837V153.183z"/>
	<path fill="#010101" d="M144.825,176.954c-8.644,0-11.289-7.192-11.289-12.191c0-5,2.645-12.192,11.289-12.192   c8.645,0,11.289,7.192,11.289,12.192C156.113,169.762,153.469,176.954,144.825,176.954z M144.825,155.344   c-5.031,0-8.063,3.969-8.063,9.419s3.032,9.417,8.063,9.417c5.032,0,8.063-3.967,8.063-9.417S149.857,155.344,144.825,155.344z"/>
	<path fill="#010101" d="M175.988,176.342h-3.129v-23.159h10.708c3.807,0,7.611,1.322,7.611,6.225c0,3.419-1.741,4.677-3.226,5.549   c1.323,0.549,2.646,1.129,2.774,4.354l0.193,4.194c0.033,1.289,0.195,1.773,1.162,2.321v0.517h-3.838   c-0.452-1.42-0.548-4.935-0.548-5.807c0-1.904-0.387-4.129-4.128-4.129h-7.579V176.342z M175.988,163.729h7.257   c2.291,0,4.708-0.58,4.708-4.001c0-3.578-2.613-3.868-4.16-3.868h-7.805V163.729z"/>
	<path fill="#010101" d="M216.663,176.342h-3.129v-9.321l-8.74-13.838h3.645l6.645,11.128l6.645-11.128h3.675l-8.74,13.838V176.342z   "/>
	<path fill="#010101" d="M271.334,176.954c-8.644,0-11.29-7.193-11.29-12.191c0-5,2.646-12.192,11.29-12.192   c8.645,0,11.29,7.192,11.29,12.192C282.624,169.761,279.979,176.954,271.334,176.954z M271.334,155.344   c-5.032,0-8.065,3.969-8.065,9.419s3.033,9.417,8.065,9.417s8.063-3.967,8.063-9.417S276.366,155.344,271.334,155.344z"/>
	<path fill="#010101" d="M317.3,153.183v15.03c0,4.741-2.967,8.741-9.32,8.741c-6.226,0-8.9-4-8.9-8.323v-15.448h3.128v14.58   c0,5.03,3.064,6.417,5.868,6.417c2.872,0,6.097-1.32,6.097-6.354v-14.644H317.3z"/>
	<path fill="#010101" d="M330.257,153.183h18.805v2.774h-7.839v20.385h-3.128v-20.385h-7.838V153.183z"/>
	<path fill="#010101" d="M367.739,173.566h11.741v2.775h-14.87v-23.159h3.129V173.566z"/>
	<path fill="#010101" d="M412.61,176.342h-17.096v-23.159h16.869v2.774h-13.74v7.095h12.677v2.774h-12.677v7.74h13.967V176.342z"/>
	<path fill="#010101" d="M427.354,153.183h18.804v2.774h-7.835v20.385h-3.129v-20.385h-7.84V153.183z"/>
</g>
</svg>